<svg xmlns="http://www.w3.org/2000/svg" width="215" height="36" fill="none"><path fill="url(#a)" d="m26.059 3.436 2.463 7.445h7.846l-6.357 4.64 2.405 7.445-6.357-4.582-6.357 4.582 2.405-7.446-6.3-4.639h7.847l2.405-7.445Z"/><path fill="#029E12" d="M49.483 2.463c.057.172.057.4.057.572v.573c0 .172-.057.344-.057.516 0 .171-.057.286-.114.458-.172.515-.344.859-.344.859s-.23-.287-.515-.745c-.058-.114-.115-.229-.23-.4-.057-.115-.171-.287-.229-.459-.057-.172-.114-.286-.172-.458l-.171-.515c-.058-.172-.058-.344-.058-.516 0-.172-.057-.343-.057-.515v-.458c0-.172 0-.287.057-.459.058-.515.172-.916.172-.916s.287.23.688.63c.114.115.171.23.286.344.114.114.172.286.286.458.057.172.172.343.23.515.057.115.114.287.171.516ZM47.994 5.212l.286.286c.058.115.115.23.23.344.114.229.229.458.286.687.057.23.114.401.114.516v.229s-.286 0-.63-.172a2.675 2.675 0 0 1-.572-.287c-.115-.057-.172-.114-.287-.229-.114-.057-.172-.171-.286-.229a2.545 2.545 0 0 1-.458-.63c-.115-.229-.23-.4-.286-.63a3.945 3.945 0 0 0-.172-.458c-.058-.114-.058-.172-.058-.172s.287 0 .63.058c.401.171.802.286 1.203.687ZM49.999 5.04c-.058.115-.115.23-.172.4-.057.115-.115.287-.172.402-.114.286-.172.515-.172.744-.057.23-.057.401-.114.573v.23s.286 0 .63-.173c.171-.057.343-.171.572-.286.115-.057.172-.172.287-.23.114-.114.172-.228.229-.343.172-.229.286-.515.343-.802.115-.286.115-.572.172-.801 0-.23.058-.459.058-.63v-.23s-.23.058-.573.23c-.401.114-.802.4-1.088.916ZM47.994 8.476c.115.115.172.23.23.344.056.115.114.286.171.4.057.287.172.516.172.745.057.459 0 .802 0 .802s-.287-.057-.63-.229c-.344-.172-.802-.515-1.088-.973-.344-.459-.459-.974-.573-1.432-.057-.23-.057-.401-.057-.516v-.229s.286 0 .687.172c.286.23.744.458 1.088.916ZM50.17 8.59c-.114.115-.172.23-.286.344-.057.115-.172.287-.23.401-.114.287-.228.516-.343.745-.172.458-.229.802-.229.802s.286 0 .687-.058c.401-.114.917-.286 1.318-.744.4-.458.687-1.088.801-1.661.058-.286.115-.516.115-.687v-.287s-.286 0-.63.172c-.344.23-.859.516-1.203.974ZM47.536 11.684c.057.057.057.114.114.229 0 .057.058.114.058.229.057.171.057.286.114.458 0 .172.058.286.058.458v.4c0 .23-.058.46-.058.63 0 .058 0 .116-.057.173v.057s-.286-.114-.63-.4c-.344-.287-.744-.63-1.03-1.204-.058-.114-.115-.286-.173-.4-.057-.115-.057-.287-.114-.401-.057-.115-.057-.287-.057-.401 0-.115-.058-.23-.058-.344v-.802s.287.058.688.287c.4.171.801.458 1.145 1.03ZM49.77 12.142l-.172.171-.172.172c-.115.115-.23.23-.287.401a.922.922 0 0 0-.229.401c-.057.114-.171.229-.229.344l-.286.572c-.057.172-.115.23-.115.23s.287.057.745.057c.4 0 .974-.172 1.546-.573l.344-.344c.114-.114.229-.286.286-.4.115-.115.172-.287.287-.402a2.79 2.79 0 0 1 .172-.4c.114-.287.171-.516.229-.688 0-.114.057-.171.057-.229v-.057s-.286 0-.745.057c-.4.057-.973.23-1.431.688ZM46.562 14.776c.115.287.172.63.172.974v.459c0 .17-.057.285-.057.4-.057.286-.115.515-.172.63-.057.172-.114.23-.114.23s-.287-.173-.573-.516c-.172-.172-.344-.344-.458-.573-.172-.23-.287-.516-.401-.802-.058-.172-.058-.286-.115-.458-.057-.172-.057-.286-.057-.458v-.802c0-.23.057-.458.057-.573.057-.172.057-.229.057-.229s.058.057.172.115c.115.057.287.171.458.286.401.286.802.687 1.031 1.317ZM48.853 15.636c-.286.171-.572.4-.802.63l-.171.171-.172.172c-.115.115-.172.23-.286.344-.172.229-.287.4-.401.573a.988.988 0 0 0-.172.229s.286.114.744.172h.802c.286-.058.573-.172.916-.344.172-.115.287-.172.459-.286.114-.115.286-.23.4-.401.23-.287.459-.573.63-.802.172-.287.287-.516.344-.688.057-.171.115-.286.115-.286H50.457c-.401 0-1.031.115-1.604.516ZM45.13 17.64c.058.343.058.687 0 1.03-.057.344-.114.63-.229.917-.057.115-.114.286-.171.344-.058.114-.115.229-.115.286a.626.626 0 0 1-.114.23s-.287-.23-.516-.63a7.275 7.275 0 0 1-.4-.688 3.934 3.934 0 0 1-.173-.458c-.057-.172-.114-.287-.114-.459-.115-.687 0-1.317.114-1.775.058-.229.115-.458.172-.573 0-.057.057-.114.057-.171v-.058s.287.172.63.516c.344.343.745.802.86 1.489ZM47.422 18.9c-.344.171-.688.343-.917.572-.286.23-.573.458-.744.63l-.287.287-.229.229c-.114.114-.172.229-.172.229s.287.172.745.286c.229.058.515.115.859.115.172 0 .344 0 .515-.058.172-.057.344-.057.516-.171.744-.287 1.374-.86 1.775-1.375.23-.286.401-.515.516-.687.057-.115.114-.172.114-.23l.058-.056s-.459-.058-.917-.058c-.515-.057-1.145 0-1.832.287ZM43.298 20.274v.573c0 .172-.058.344-.115.515a4.43 4.43 0 0 1-.4.917c-.172.286-.287.458-.402.63-.057.057-.114.114-.114.172l-.057.057-.172-.172c-.115-.114-.172-.286-.287-.515a3.31 3.31 0 0 1-.286-.802c-.057-.172-.057-.287-.115-.458 0-.172-.057-.344-.057-.516 0-.343.057-.687.115-1.03.057-.344.172-.63.286-.86.115-.229.172-.458.286-.573l.115-.229s.286.23.573.63c.172.172.286.459.458.745.057.229.172.573.172.916ZM45.474 21.992c-.172.058-.4.115-.573.172-.172.058-.343.172-.515.23-.344.171-.63.343-.916.572-.287.172-.459.344-.63.458l-.172.172-.057.057.171.172c.115.058.287.172.573.287.23.114.516.171.86.229.17 0 .343.057.514.057.172 0 .401 0 .573-.057.401-.115.802-.287 1.146-.459.343-.229.687-.458.916-.687.286-.229.458-.458.63-.63s.23-.286.23-.286-.344-.172-.86-.287a3.984 3.984 0 0 0-.916-.114c-.23-.057-.573 0-.974.114Z"/><path fill="#029E12" d="M45.245 26.002s-.057-.058-.229-.172c-.172-.115-.344-.23-.63-.344-.286-.114-.573-.229-.974-.286-.172-.058-.343-.058-.572-.058h-.63c-.344 0-.688.115-1.031.172-.344.058-.63.172-.974.287-.114.057-.286.114-.4.172l-.344.171c-.23.115-.401.172-.516.23l-.114-.115c.114-.057.229-.23.4-.401l.287-.286c.114-.115.172-.23.286-.344.172-.23.344-.515.516-.802.114-.286.229-.63.286-.973 0-.115 0-.172.057-.287v-.286c0-.172-.057-.344-.057-.516a1.94 1.94 0 0 0-.344-.859c-.114-.229-.229-.458-.343-.572-.115-.115-.172-.23-.172-.23s-.057.058-.172.23c-.114.114-.229.343-.4.572-.173.23-.344.516-.459.86a3.454 3.454 0 0 0-.344 1.088c-.114.572-.114 1.202 0 1.66.115.516.23.86.344 1.089a22.164 22.164 0 0 1-4.525 2.233c-.171.057-.286.23-.229.344.058.114.23.229.401.114a23.3 23.3 0 0 0 4.64-2.29c.343.343 1.202 1.145 2.634 1.145.458 0 .916-.115 1.374-.286.401-.172.86-.344 1.203-.573.344-.23.63-.401.802-.573a.79.79 0 0 0 .229-.172v.058ZM2.577 2.463c-.057.172-.057.4-.057.572v.573c0 .172.057.344.057.516 0 .171.057.286.115.458.172.515.343.859.343.859s.23-.287.516-.745c.057-.114.114-.229.229-.4.057-.115.172-.287.229-.459.057-.172.115-.286.172-.458l.172-.515c.057-.172.057-.344.057-.516 0-.172.057-.343.057-.515v-.458c0-.172 0-.287-.057-.459C4.353.401 4.238 0 4.238 0s-.344.172-.744.573c-.115.114-.172.229-.287.343-.114.115-.172.287-.286.459-.115.171-.172.343-.23.515 0 .172-.057.344-.114.573ZM4.009 5.212l-.286.286c-.058.115-.115.23-.23.344-.114.229-.229.458-.286.687-.057.23-.114.401-.114.516v.229s.286 0 .63-.172c.171-.057.4-.172.572-.287.115-.057.172-.114.287-.229.114-.057.172-.171.286-.229.172-.172.344-.4.458-.63.115-.229.23-.4.287-.63.057-.172.114-.343.171-.458.058-.114.058-.172.058-.172s-.287 0-.63.058c-.344.171-.802.286-1.203.687ZM2.062 5.04c.057.114.114.229.172.4.057.115.114.287.171.402.115.286.172.515.172.744.058.23.058.401.115.573v.229s-.287 0-.63-.172c-.172-.057-.344-.172-.573-.286-.057-.172-.172-.23-.286-.344a1.198 1.198 0 0 1-.23-.344 2.008 2.008 0 0 1-.343-.801c-.115-.287-.115-.573-.172-.802 0-.23-.057-.458-.057-.63v-.23s.229.058.573.23c.4.229.801.515 1.088 1.03ZM4.01 8.476c-.115.115-.173.23-.23.344-.057.114-.114.286-.172.4-.057.287-.114.516-.114.803a3.07 3.07 0 0 0 0 .801s.229-.057.572-.229c.344-.171.802-.515 1.089-.973.343-.459.458-.974.572-1.432.058-.23.058-.401.058-.516v-.229s-.287 0-.688.172c-.229.172-.687.401-1.088.86ZM1.89 8.59c.115.115.172.23.286.344.058.115.172.287.23.401.114.287.229.516.343.745.172.458.23.802.23.802s-.287 0-.688-.058c-.401-.114-.916-.286-1.317-.744a3.743 3.743 0 0 1-.802-1.661C.057 8.189.057 7.96 0 7.789v-.287s.286 0 .63.172c.4.172.86.458 1.26.917ZM4.525 11.684c-.058.057-.058.114-.115.229 0 .057-.057.114-.057.229-.058.171-.058.286-.115.458 0 .172-.057.286-.057.458v.4c0 .23.057.46.057.63 0 .058 0 .116.057.173v.057s.287-.114.63-.4c.344-.287.745-.63 1.031-1.204.058-.114.115-.286.172-.4.057-.115.057-.287.115-.401.057-.115.057-.287.057-.401 0-.115.057-.23.057-.344v-.802s-.286.058-.687.287c-.4.171-.86.458-1.145 1.03ZM2.29 12.142l.173.171.171.172c.115.115.23.23.287.401a.922.922 0 0 1 .229.401c.057.114.172.229.229.344l.286.572c.058.172.115.23.115.23s-.286.057-.745.057c-.4 0-.973-.172-1.546-.573l-.344-.344a1.738 1.738 0 0 1-.286-.4c-.115-.115-.172-.287-.286-.402a2.79 2.79 0 0 0-.172-.4c-.115-.287-.172-.516-.23-.688 0-.114-.056-.171-.056-.229v-.057s.286 0 .744.057c.4.057.916.23 1.432.688ZM5.498 14.776c-.115.287-.172.63-.172.974v.459c0 .17.057.285.057.4.058.286.115.515.172.63.058.172.115.23.115.23s.286-.173.573-.516c.171-.172.343-.344.458-.573.172-.23.286-.516.4-.802.058-.172.058-.286.115-.458.057-.172.057-.286.057-.458v-.802c0-.23-.057-.458-.057-.573-.057-.172-.057-.229-.057-.229s-.057.057-.172.115c-.114.057-.286.171-.458.286-.401.286-.802.687-1.031 1.317ZM3.207 15.636c.287.171.573.4.802.63l.172.171.172.172c.114.115.171.23.286.344.172.229.286.4.4.573a.99.99 0 0 1 .173.229s-.287.114-.745.172h-.802c-.286-.058-.572-.172-.916-.344-.172-.115-.286-.172-.458-.286-.115-.115-.287-.23-.401-.401-.23-.287-.458-.573-.63-.802a3.764 3.764 0 0 1-.344-.688c-.057-.171-.114-.286-.114-.286H1.604c.4 0 1.03.115 1.603.516ZM6.873 17.64a3.114 3.114 0 0 0 0 1.03c.057.344.114.63.229.917.057.115.114.286.172.344.057.114.114.229.114.286.058.172.115.23.115.23s.286-.23.515-.63c.115-.173.287-.459.401-.688.057-.115.115-.287.172-.458.057-.172.115-.287.115-.459.114-.687 0-1.317-.115-1.775-.057-.229-.115-.458-.172-.573 0-.057-.057-.114-.057-.171v-.058s-.286.172-.63.516c-.286.343-.687.802-.86 1.489ZM4.64 18.9c.343.171.686.343.916.572.286.23.572.458.744.63l.286.287.23.229a.99.99 0 0 1 .171.229s-.286.172-.744.286c-.23.058-.516.115-.86.115-.171 0-.343 0-.515-.058-.172-.057-.343-.057-.515-.171-.745-.287-1.375-.86-1.776-1.375-.229-.286-.4-.515-.515-.687-.057-.115-.115-.172-.115-.23l-.057-.056s.401-.058.916-.058c.516-.057 1.146 0 1.833.287ZM8.705 20.274v.573c0 .172.058.344.115.515.115.344.23.63.4.917.173.286.287.458.402.63.057.057.114.114.114.172l.058.057.171-.172c.115-.114.172-.286.287-.515.114-.23.229-.516.286-.802.057-.172.057-.287.115-.458 0-.172.057-.344.057-.516 0-.343-.057-.687-.115-1.03a3.018 3.018 0 0 0-.286-.86c-.114-.229-.172-.458-.286-.573l-.115-.229s-.286.23-.573.63c-.171.172-.286.459-.458.745-.057.229-.172.573-.172.916ZM6.53 21.992c.17.057.4.115.572.172.172.057.343.172.515.229.344.172.63.344.917.573.286.172.458.343.63.458l.171.172.058.057s-.058 0-.172.115c-.115.057-.286.171-.573.286-.229.115-.515.172-.859.229-.172 0-.344.057-.515.057-.172 0-.401 0-.573-.057a6.815 6.815 0 0 1-1.146-.458c-.343-.23-.687-.458-.916-.687-.286-.23-.458-.459-.63-.63-.172-.172-.229-.287-.229-.287s.286-.172.802-.286c.229-.057.573-.115.916-.115.287 0 .687.058 1.031.172Z"/><path fill="#029E12" d="M6.758 26.002s.057-.058.23-.172c.171-.115.343-.23.63-.344.286-.114.572-.229.973-.286.172-.058.344-.058.573-.058H9.794c.343 0 .687.115 1.03.172.344.058.63.172.974.287.115.057.287.114.401.172l.344.171c.229.115.4.172.515.23l.115-.115c-.115-.057-.23-.23-.401-.401l-.287-.286c-.114-.115-.171-.23-.286-.344a9.766 9.766 0 0 1-.515-.802 4.835 4.835 0 0 1-.287-.973c0-.115 0-.172-.057-.287v-.286c0-.172.057-.344.057-.516a1.94 1.94 0 0 1 .344-.859c.114-.229.229-.458.344-.572.114-.115.171-.23.171-.23s.058.058.172.23c.115.114.23.343.401.572.172.23.344.516.458.86.172.343.287.687.344 1.088.114.572.114 1.202 0 1.66-.115.516-.23.86-.344 1.089 1.432.916 2.921 1.66 4.525 2.233.171.057.286.23.229.344-.058.114-.23.229-.401.114a23.299 23.299 0 0 1-4.64-2.29c-.343.343-1.202 1.145-2.634 1.145-.458 0-.916-.115-1.374-.286-.401-.172-.86-.344-1.203-.573-.344-.23-.63-.401-.802-.573a.79.79 0 0 1-.229-.172c.057.115 0 .058 0 .058Z"/><path fill="#fff" d="M66.321 7.96h-8.133V3.208h22.05v4.754H72.22v20.56h-5.842V7.961h-.057ZM86.824 27.49c-1.603-.858-2.92-2.061-3.837-3.55-.916-1.547-1.374-3.265-1.374-5.155 0-1.947.458-3.665 1.374-5.154.917-1.547 2.177-2.692 3.837-3.551 1.604-.86 3.494-1.26 5.499-1.26 2.061 0 3.894.4 5.498 1.26a9.822 9.822 0 0 1 3.78 3.55c.916 1.547 1.374 3.265 1.374 5.155 0 1.948-.458 3.666-1.374 5.155-.917 1.546-2.177 2.691-3.78 3.55-1.604.86-3.437 1.26-5.498 1.26-2.062.058-3.895-.4-5.499-1.26Zm9.05-4.81c.916-.974 1.374-2.291 1.374-3.952s-.458-2.921-1.374-3.952c-.917-.973-2.12-1.489-3.551-1.489-1.432 0-2.635.515-3.609 1.49-.916.973-1.431 2.29-1.431 3.95 0 1.662.458 2.922 1.431 3.953.917.973 2.12 1.489 3.609 1.489 1.431 0 2.634-.516 3.55-1.49ZM123.192 10.022a9.3 9.3 0 0 1 3.494 3.494c.859 1.489 1.26 3.264 1.26 5.269 0 2.004-.401 3.78-1.26 5.269-.859 1.489-2.005 2.692-3.494 3.494a10.32 10.32 0 0 1-4.925 1.26c-2.463 0-4.467-.802-5.842-2.349v9.107h-5.67V9.049h5.384v2.233c1.374-1.66 3.436-2.52 6.128-2.52 1.833 0 3.436.401 4.925 1.26Zm-2.348 12.657c.917-.973 1.375-2.29 1.375-3.951s-.458-2.921-1.375-3.952c-.916-.974-2.119-1.49-3.551-1.49-1.431 0-2.634.516-3.551 1.49-.916.973-1.374 2.29-1.374 3.952 0 1.66.458 2.92 1.374 3.951.917.974 2.12 1.49 3.551 1.49 1.432 0 2.635-.516 3.551-1.49Z"/><path fill="#029E12" d="M133.559 28.12c-1.89-.515-3.379-1.26-4.525-2.119l2.005-4.41c1.088.802 2.348 1.432 3.894 1.89 1.489.458 2.979.745 4.468.745 1.66 0 2.92-.23 3.665-.745.802-.515 1.203-1.145 1.203-1.947 0-.63-.229-1.088-.688-1.49-.458-.4-1.088-.744-1.832-.973a39.697 39.697 0 0 0-2.978-.802c-1.948-.458-3.494-.916-4.754-1.374a7.586 7.586 0 0 1-3.15-2.234c-.859-1.03-1.317-2.348-1.317-4.066 0-1.49.401-2.806 1.202-4.01.802-1.202 2.005-2.118 3.609-2.863 1.603-.687 3.551-1.03 5.899-1.03 1.603 0 3.207.171 4.753.572 1.547.401 2.921.916 4.067 1.661l-1.833 4.467c-2.348-1.317-4.696-2.004-7.045-2.004-1.661 0-2.863.286-3.608.802-.802.515-1.202 1.202-1.202 2.119 0 .859.458 1.489 1.374 1.947.916.4 2.291.859 4.124 1.26 1.947.458 3.493.916 4.753 1.374a8.003 8.003 0 0 1 3.15 2.177c.859.973 1.317 2.348 1.317 4.009 0 1.432-.4 2.749-1.202 3.952-.802 1.202-2.005 2.119-3.608 2.863-1.604.688-3.609 1.031-5.899 1.031-2.062 0-3.952-.229-5.842-.802ZM153.719 1.66h5.67v26.861h-5.67V1.661ZM168.38 27.49c-1.603-.858-2.921-2.061-3.837-3.55-.916-1.547-1.374-3.265-1.374-5.155 0-1.947.458-3.665 1.374-5.154.916-1.547 2.176-2.692 3.837-3.551 1.604-.86 3.494-1.26 5.498-1.26 2.005 0 3.895.4 5.499 1.26a9.826 9.826 0 0 1 3.78 3.55c.916 1.547 1.374 3.265 1.374 5.155 0 1.948-.458 3.666-1.374 5.155-.917 1.546-2.177 2.691-3.78 3.55-1.604.86-3.437 1.26-5.499 1.26-2.061 0-3.894-.4-5.498-1.26Zm9.049-4.81c.917-.974 1.375-2.291 1.375-3.952s-.458-2.921-1.375-3.952c-.916-.973-2.119-1.489-3.551-1.489-1.431 0-2.634.515-3.608 1.49-.916.973-1.431 2.29-1.431 3.95 0 1.662.458 2.922 1.431 3.953.917.973 2.119 1.489 3.608 1.489 1.432 0 2.635-.516 3.551-1.49ZM188.311 1.66h5.67v26.861h-5.67V1.661ZM201.026 28.178c-1.547-.401-2.75-.917-3.666-1.49l1.89-4.066c.859.573 1.89 1.031 3.15 1.375 1.203.343 2.463.515 3.608.515 2.406 0 3.608-.573 3.608-1.775 0-.573-.343-.974-.973-1.203-.63-.229-1.661-.458-2.978-.63-1.604-.229-2.921-.515-3.952-.859a5.774 5.774 0 0 1-2.692-1.66c-.745-.803-1.145-1.948-1.145-3.38 0-1.203.343-2.348 1.088-3.264.687-.974 1.775-1.719 3.092-2.234 1.375-.516 2.979-.802 4.811-.802 1.375 0 2.749.172 4.124.458 1.374.287 2.463.745 3.379 1.26l-1.89 4.01c-1.718-.974-3.608-1.432-5.613-1.432-1.202 0-2.119.171-2.691.515-.63.344-.917.745-.917 1.317 0 .63.344 1.031.974 1.26.63.23 1.661.458 3.092.688 1.604.286 2.921.572 3.895.859 1.031.286 1.89.859 2.635 1.66.744.802 1.145 1.89 1.145 3.322 0 1.203-.344 2.291-1.088 3.207-.745.917-1.776 1.661-3.15 2.177-1.375.515-3.036.802-4.926.802-1.718 0-3.264-.23-4.81-.63Z"/><defs><linearGradient id="a" x1="15.786" x2="36.356" y1="13.202" y2="13.202" gradientUnits="userSpaceOnUse"><stop stop-color="#03300C"/><stop offset="0" stop-color="#FF4116"/><stop offset=".121" stop-color="#FF4116"/><stop offset=".55" stop-color="#FF940A"/><stop offset=".853" stop-color="#FFC903"/><stop offset="1" stop-color="#FD0"/></linearGradient></defs></svg>